<svg width="16" height="16" viewBox="0 0 16 16" fill="none" xmlns="http://www.w3.org/2000/svg">
<path d="M15.125 1.88855V11.6386C15.125 11.9369 15.0064 12.2231 14.7955 12.434C14.5845 12.645 14.2983 12.7636 14 12.7636C13.7016 12.7636 13.4154 12.645 13.2045 12.434C12.9935 12.2231 12.875 11.9369 12.875 11.6386V4.6073L2.7959 14.6845C2.58455 14.8958 2.29791 15.0146 1.99902 15.0146C1.70014 15.0146 1.41349 14.8958 1.20215 14.6845C0.990803 14.4731 0.87207 14.1865 0.87207 13.8876C0.87207 13.5887 0.990803 13.3021 1.20215 13.0907L11.2812 3.01355H4.24996C3.95159 3.01355 3.66544 2.89502 3.45446 2.68405C3.24349 2.47307 3.12496 2.18692 3.12496 1.88855C3.12496 1.59018 3.24349 1.30403 3.45446 1.09305C3.66544 0.882076 3.95159 0.76355 4.24996 0.76355H14C14.2983 0.76355 14.5845 0.882076 14.7955 1.09305C15.0064 1.30403 15.125 1.59018 15.125 1.88855Z" fill="#00AA9D"/>
</svg>
