<svg width="40" height="39" viewBox="0 0 40 39" fill="none" xmlns="http://www.w3.org/2000/svg">
<rect x="-0.5" y="0.5" width="39.0006" height="38.0008" rx="19.0004" transform="matrix(-1 0 0 1 39.0005 0)" fill="white"/>
<rect x="-0.5" y="0.5" width="39.0006" height="38.0008" rx="19.0004" transform="matrix(-1 0 0 1 39.0005 0)" stroke="#F7F5EB"/>
<path d="M11.2199 20.031L17.9699 26.781C18.1106 26.9218 18.3015 27.0008 18.5005 27.0008C18.6995 27.0008 18.8904 26.9218 19.0311 26.781C19.1718 26.6403 19.2509 26.4494 19.2509 26.2504C19.2509 26.0514 19.1718 25.8605 19.0311 25.7198L13.5608 20.2504H28.2505C28.4494 20.2504 28.6402 20.1714 28.7808 20.0307C28.9215 19.8901 29.0005 19.6993 29.0005 19.5004C29.0005 19.3015 28.9215 19.1107 28.7808 18.9701C28.6402 18.8294 28.4494 18.7504 28.2505 18.7504H13.5608L19.0311 13.281C19.1718 13.1403 19.2509 12.9494 19.2509 12.7504C19.2509 12.5514 19.1718 12.3605 19.0311 12.2198C18.8904 12.0791 18.6995 12 18.5005 12C18.3015 12 18.1106 12.0791 17.9699 12.2198L11.2199 18.9698C11.1501 19.0394 11.0948 19.1222 11.0571 19.2132C11.0193 19.3043 10.9999 19.4019 10.9999 19.5004C10.9999 19.599 11.0193 19.6966 11.0571 19.7876C11.0948 19.8787 11.1501 19.9614 11.2199 20.031Z" fill="black"/>
</svg>
