<svg width="41" height="39" viewBox="0 0 41 39" fill="none" xmlns="http://www.w3.org/2000/svg">
<rect x="0.5" y="0.147217" width="40.25" height="37.9999" rx="12" fill="#00AA9D" fill-opacity="0.2"/>
<path d="M28.875 10.1472H12.375C11.8777 10.1472 11.4008 10.3448 11.0492 10.6964C10.6975 11.048 10.5 11.5249 10.5 12.0222V27.0222C10.5 27.214 10.5491 27.4026 10.6425 27.5701C10.7359 27.7376 10.8706 27.8784 11.0338 27.9792C11.1969 28.08 11.3831 28.1374 11.5747 28.146C11.7663 28.1545 11.9569 28.114 12.1284 28.0282L14.625 26.7803L17.1216 28.0282C17.2779 28.1064 17.4502 28.1471 17.625 28.1471C17.7998 28.1471 17.9721 28.1064 18.1284 28.0282L20.625 26.7803L23.1216 28.0282C23.2779 28.1064 23.4502 28.1471 23.625 28.1471C23.7998 28.1471 23.9721 28.1064 24.1284 28.0282L26.625 26.7803L29.1216 28.0282C29.2931 28.114 29.4837 28.1545 29.6753 28.146C29.8669 28.1374 30.0531 28.08 30.2162 27.9792C30.3794 27.8784 30.5141 27.7376 30.6075 27.5701C30.7009 27.4026 30.75 27.214 30.75 27.0222V12.0222C30.75 11.5249 30.5525 11.048 30.2008 10.6964C29.8492 10.3448 29.3723 10.1472 28.875 10.1472ZM28.5 25.2016L27.1284 24.5163C26.9721 24.4381 26.7998 24.3973 26.625 24.3973C26.4502 24.3973 26.2779 24.4381 26.1216 24.5163L23.625 25.7641L21.1284 24.5163C20.9721 24.4381 20.7998 24.3973 20.625 24.3973C20.4502 24.3973 20.2779 24.4381 20.1216 24.5163L17.625 25.7641L15.1284 24.5163C14.9721 24.4381 14.7998 24.3973 14.625 24.3973C14.4502 24.3973 14.2779 24.4381 14.1216 24.5163L12.75 25.2016V12.3972H28.5V25.2016ZM21.375 16.8972C21.375 16.5988 21.4935 16.3127 21.7045 16.1017C21.9155 15.8907 22.2016 15.7722 22.5 15.7722H25.875C26.1734 15.7722 26.4595 15.8907 26.6705 16.1017C26.8815 16.3127 27 16.5988 27 16.8972C27 17.1956 26.8815 17.4817 26.6705 17.6927C26.4595 17.9037 26.1734 18.0222 25.875 18.0222H22.5C22.2016 18.0222 21.9155 17.9037 21.7045 17.6927C21.4935 17.4817 21.375 17.1956 21.375 16.8972ZM21.375 20.6472C21.375 20.3488 21.4935 20.0627 21.7045 19.8517C21.9155 19.6407 22.2016 19.5222 22.5 19.5222H25.875C26.1734 19.5222 26.4595 19.6407 26.6705 19.8517C26.8815 20.0627 27 20.3488 27 20.6472C27 20.9456 26.8815 21.2317 26.6705 21.4427C26.4595 21.6537 26.1734 21.7722 25.875 21.7722H22.5C22.2016 21.7722 21.9155 21.6537 21.7045 21.4427C21.4935 21.2317 21.375 20.9456 21.375 20.6472ZM15.375 22.8972H19.125C19.4234 22.8972 19.7095 22.7787 19.9205 22.5677C20.1315 22.3567 20.25 22.0706 20.25 21.7722V15.7722C20.25 15.4738 20.1315 15.1877 19.9205 14.9767C19.7095 14.7657 19.4234 14.6472 19.125 14.6472H15.375C15.0766 14.6472 14.7905 14.7657 14.5795 14.9767C14.3685 15.1877 14.25 15.4738 14.25 15.7722V21.7722C14.25 22.0706 14.3685 22.3567 14.5795 22.5677C14.7905 22.7787 15.0766 22.8972 15.375 22.8972ZM16.5 16.8972H18V20.6472H16.5V16.8972Z" fill="#00AA9D"/>
</svg>
