<svg width="39" height="38" viewBox="0 0 39 38" fill="none" xmlns="http://www.w3.org/2000/svg">
<rect x="0.5" y="0.0458984" width="37.7258" height="37.761" rx="12" fill="#00AA9D" fill-opacity="0.2"/>
<path d="M24.225 13.2893C24.225 13.586 24.137 13.876 23.9722 14.1227C23.8073 14.3694 23.5731 14.5616 23.299 14.6752C23.0249 14.7887 22.7233 14.8184 22.4323 14.7605C22.1414 14.7026 21.8741 14.5598 21.6643 14.35C21.4545 14.1402 21.3117 13.8729 21.2538 13.582C21.1959 13.291 21.2256 12.9894 21.3391 12.7153C21.4527 12.4412 21.6449 12.2069 21.8916 12.0421C22.1383 11.8773 22.4283 11.7893 22.725 11.7893C23.1228 11.7893 23.5043 11.9474 23.7856 12.2287C24.0669 12.51 24.225 12.8915 24.225 13.2893ZM30.225 13.3512C30.255 16.3371 29.5171 18.9546 28.0931 20.9225C26.625 22.9521 24.4471 24.3171 21.6243 24.9809C19.8243 25.4046 17.744 25.5434 15.4031 25.3915C15.545 26.3596 15.7325 27.3703 15.9656 28.4234C15.9999 28.5686 16.0049 28.7193 15.9804 28.8665C15.9559 29.0137 15.9024 29.1546 15.8229 29.2809C15.7434 29.4073 15.6396 29.5165 15.5175 29.6023C15.3954 29.6881 15.2574 29.7488 15.1117 29.7808C14.9659 29.8127 14.8152 29.8154 14.6684 29.7885C14.5215 29.7617 14.3815 29.7059 14.2565 29.6244C14.1315 29.5429 14.0239 29.4374 13.94 29.3139C13.8562 29.1905 13.7977 29.0515 13.7681 28.9053C13.4818 27.6021 13.2606 26.355 13.1043 25.1637C11.9168 25.0075 10.6709 24.7865 9.36652 24.5009C9.07916 24.4331 8.82999 24.255 8.67277 24.0051C8.51554 23.7551 8.46287 23.4534 8.52611 23.165C8.58936 22.8766 8.76344 22.6246 9.01082 22.4634C9.25819 22.3022 9.55902 22.2448 9.8484 22.3034C10.9003 22.5328 11.91 22.7203 12.8775 22.8659C12.7293 20.5221 12.8653 18.4484 13.2881 16.6503C13.9518 13.8246 15.3168 11.6478 17.3446 10.1815C19.3134 8.75558 21.9309 8.01589 24.9178 8.04683C26.9606 8.06652 28.8553 8.46121 29.2115 8.66933C29.3754 8.7658 29.5122 8.90223 29.609 9.06589C29.8096 9.41183 30.2043 11.3084 30.225 13.3512ZM24.7443 21.1587C22.9163 20.6606 21.25 19.6938 19.9102 18.3541C18.5704 17.0143 17.6037 15.348 17.1056 13.52C16.2421 14.66 15.6468 16.1046 15.3309 17.8325C15.0496 19.369 14.9878 21.1371 15.1434 23.119C17.1271 23.2737 18.8934 23.2128 20.4328 22.9315C22.1625 22.6165 23.6034 22.0212 24.7434 21.1587H24.7443ZM27.6937 10.5706C26.2031 10.2893 22.1343 9.77839 19.0443 11.7368C19.2831 13.6381 20.1481 15.4057 21.503 16.7607C22.8578 18.1157 24.6253 18.981 26.5265 19.22C28.484 16.1318 27.975 12.0631 27.6937 10.5706Z" fill="#00AA9D"/>
</svg>
