<svg width="38" height="38" viewBox="0 0 38 38" fill="none" xmlns="http://www.w3.org/2000/svg">
<rect y="0.0458984" width="37.5555" height="37.3944" rx="12" fill="#00AA9D" fill-opacity="0.2"/>
<path d="M27.9463 13.9467C27.7869 14.0301 27.6096 14.0735 27.4298 14.0733C27.2234 14.0736 27.021 14.0172 26.8446 13.9102C26.6681 13.8033 26.5245 13.6498 26.4294 13.4667C25.7456 12.1116 24.7093 10.9658 23.4294 10.1498C23.2999 10.0732 23.1871 9.97146 23.0976 9.85049C23.0082 9.72953 22.9439 9.59184 22.9085 9.44559C22.8732 9.29934 22.8676 9.14748 22.892 8.99902C22.9164 8.85055 22.9703 8.70849 23.0506 8.58123C23.1309 8.45398 23.2359 8.34412 23.3594 8.25816C23.4828 8.1722 23.6223 8.11189 23.7695 8.08078C23.9167 8.04968 24.0687 8.04842 24.2164 8.07708C24.3641 8.10574 24.5045 8.16374 24.6294 8.24764C26.245 9.2801 27.5568 10.7239 28.4301 12.4308C28.4979 12.5621 28.5391 12.7054 28.5515 12.8527C28.5639 12.9999 28.5471 13.1482 28.5022 13.2889C28.4573 13.4297 28.3851 13.5603 28.2897 13.6731C28.1943 13.786 28.0776 13.8789 27.9463 13.9467ZM11.1238 13.4667C11.8076 12.1116 12.844 10.9658 14.1238 10.1498C14.2562 10.0749 14.372 9.97382 14.4642 9.85282C14.5564 9.73182 14.6232 9.59337 14.6603 9.44584C14.6975 9.29832 14.7044 9.14479 14.6805 8.99453C14.6567 8.84427 14.6026 8.70042 14.5216 8.57166C14.4405 8.4429 14.3342 8.33192 14.2091 8.24542C14.0839 8.15892 13.9425 8.09871 13.7934 8.06842C13.6443 8.03813 13.4906 8.0384 13.3417 8.0692C13.1927 8.10001 13.0515 8.16071 12.9266 8.24764C11.311 9.2801 9.99928 10.7239 9.126 12.4308C8.98886 12.6956 8.96249 13.004 9.05267 13.2883C9.14286 13.5725 9.34222 13.8094 9.60694 13.9467C9.76635 14.0301 9.94361 14.0735 10.1235 14.0733C10.3298 14.0736 10.5323 14.0172 10.7087 13.9102C10.8851 13.8033 11.0287 13.6498 11.1238 13.4667ZM27.3904 22.687C27.602 22.9648 27.7318 23.2961 27.7653 23.6437C27.7987 23.9912 27.7344 24.3412 27.5797 24.6543C27.4249 24.9673 27.1859 25.2308 26.8894 25.4153C26.5929 25.5998 26.2508 25.6978 25.9016 25.6983H22.8838C22.7884 26.7216 22.3145 27.6724 21.5548 28.3645C20.7951 29.0567 19.8043 29.4403 18.7766 29.4403C17.7489 29.4403 16.7582 29.0567 15.9985 28.3645C15.2388 27.6724 14.7648 26.7216 14.6694 25.6983H11.6516C11.3022 25.6983 10.9597 25.6007 10.6629 25.4164C10.366 25.2322 10.1265 24.9686 9.97138 24.6555C9.81629 24.3424 9.75177 23.9922 9.78511 23.6444C9.81845 23.2965 9.94832 22.965 10.1601 22.687C10.8322 21.8123 11.6347 20.1914 11.6488 17.4426C11.6496 15.5526 12.4011 13.7403 13.7381 12.4043C15.0751 11.0684 16.888 10.3183 18.778 10.319C20.6681 10.3198 22.4804 11.0713 23.8163 12.4083C25.1523 13.7453 25.9024 15.5582 25.9016 17.4483C25.9157 20.1914 26.7182 21.8123 27.3904 22.687ZM20.6141 25.6983H16.9391C17.0252 26.1221 17.2551 26.5032 17.59 26.7769C17.9249 27.0506 18.3441 27.2001 18.7766 27.2001C19.2091 27.2001 19.6283 27.0506 19.9632 26.7769C20.2981 26.5032 20.5281 26.1221 20.6141 25.6983ZM25.1835 23.4483C24.4185 22.2295 23.6657 20.3011 23.6516 17.4539C23.652 16.8137 23.5263 16.1797 23.2816 15.5881C23.037 14.9965 22.6782 14.4589 22.2258 14.0059C21.7733 13.553 21.2361 13.1936 20.6448 12.9482C20.0535 12.7029 19.4196 12.5764 18.7794 12.5761C18.1392 12.5757 17.5052 12.7014 16.9136 12.9461C16.322 13.1907 15.7844 13.5495 15.3315 14.0019C14.8785 14.4544 14.5191 14.9916 14.2738 15.5829C14.0285 16.1742 13.902 16.8081 13.9016 17.4483C13.8876 20.3001 13.1347 22.2295 12.3698 23.4483H25.1835Z" fill="#00AA9D"/>
</svg>
