<svg width="40" height="40" viewBox="0 0 40 40" fill="none" xmlns="http://www.w3.org/2000/svg">
<rect y="0.147217" width="39.997" height="39.2499" rx="12" fill="#00AA9D" fill-opacity="0.2"/>
<path d="M31.7993 17.1573L29.4059 12.3761C29.2962 12.1554 29.1441 11.9585 28.9583 11.7967C28.7726 11.6348 28.5567 11.5112 28.3231 11.4328C28.0895 11.3545 27.8427 11.3229 27.5969 11.34C27.3511 11.3571 27.1111 11.4224 26.8906 11.5323L24.7174 12.6189L20.3449 11.2014C20.1193 11.1292 19.8768 11.1292 19.6512 11.2014L15.2787 12.6189L13.1056 11.5323C12.885 11.4224 12.645 11.3571 12.3992 11.34C12.1534 11.3229 11.9066 11.3545 11.673 11.4328C11.4394 11.5112 11.2235 11.6348 11.0378 11.7967C10.852 11.9585 10.6999 12.1554 10.5902 12.3761L8.1968 17.1573C8.08691 17.3778 8.02157 17.6179 8.0045 17.8637C7.98744 18.1095 8.01899 18.3562 8.09735 18.5898C8.17571 18.8234 8.29935 19.0393 8.46119 19.2251C8.62303 19.4109 8.8199 19.563 9.04055 19.6726L11.5409 20.9232L16.339 24.4304C16.4527 24.5136 16.5808 24.5749 16.7168 24.6114L22.5293 26.1114C22.6212 26.1348 22.7157 26.1468 22.8106 26.147C23.1088 26.1467 23.3948 26.028 23.6056 25.817L28.5387 20.8839L30.9602 19.6726C31.405 19.4503 31.7433 19.0604 31.9007 18.5887C32.058 18.117 32.0216 17.6021 31.7993 17.1573ZM26.3506 19.8901L23.7706 17.4526C23.5573 17.2508 23.2735 17.1404 22.98 17.145C22.6864 17.1495 22.4062 17.2687 22.1993 17.477C21.2937 18.3901 19.8499 19.0529 18.3734 18.3723L21.9537 14.9036H24.0837L26.5034 19.7439L26.3506 19.8901ZM12.4343 13.7129L13.6784 14.3345L11.6159 18.4501L10.3718 17.8286L12.4343 13.7129ZM22.4656 23.7723L17.4884 22.4907L13.5509 19.6164L15.9827 14.7564L19.9981 13.4542L20.1565 13.5057L16.4356 17.117L16.4234 17.1282C16.2251 17.3267 16.0739 17.5672 15.9809 17.8319C15.8879 18.0967 15.8555 18.3789 15.8861 18.6578C15.9167 18.9367 16.0095 19.2052 16.1576 19.4434C16.3058 19.6817 16.5055 19.8837 16.7421 20.0345C18.7062 21.2898 21.0546 21.1661 22.9606 19.7786L24.7606 21.4801L22.4656 23.7723ZM28.3718 18.4501L26.3093 14.3345L27.5534 13.7129L29.6112 17.8286L28.3718 18.4501ZM19.1121 27.5532C19.0752 27.6963 19.0104 27.8307 18.9216 27.9487C18.8327 28.0668 18.7215 28.1662 18.5942 28.2412C18.4669 28.3162 18.3261 28.3655 18.1798 28.3861C18.0335 28.4067 17.8845 28.3983 17.7415 28.3614L15.2477 27.7173C15.1099 27.6817 14.9801 27.6203 14.8652 27.5364L12.5843 25.8657C12.351 25.6869 12.197 25.4239 12.1551 25.1329C12.1133 24.842 12.187 24.5462 12.3605 24.3089C12.534 24.0716 12.7934 23.9117 13.0833 23.8632C13.3733 23.8148 13.6706 23.8818 13.9118 24.0498L16.0184 25.5892L18.304 26.1789C18.4475 26.2158 18.5822 26.2806 18.7006 26.3698C18.8189 26.4589 18.9185 26.5705 18.9935 26.6982C19.0686 26.8259 19.1178 26.9672 19.1381 27.1139C19.1585 27.2606 19.1496 27.4099 19.1121 27.5532Z" fill="#00AA9D"/>
</svg>
